<svg xmlns="http://www.w3.org/2000/svg" xml:space="preserve" style="enable-background:new 0 0 283.08 95.95" viewBox="0 0 283.08 95.95"><style>.st2{fill:#fff}.st4{fill:#df1e37}.st5{fill:#f7ad58}.st6{fill:#6e6f72}</style><g id="Artwork"><path d="M36.79 95.95 24.18 89.1s-9.3-5.93-11.17-7.78C11.16 79.48 0 69.07 0 56.01V0h73.59v56.02c0 13.05-11.16 23.47-13.02 25.31-1.86 1.84-11.15 7.78-11.15 7.78l-12.63 6.84z" class="st2"/><path d="M2.24 2.53h69.12v22.83H2.24z" style="fill:#1f429b"/><path d="M71.36 25.35H2.24v33.13l.56 2.18.94 3.37 1.37 3.12 1.62 2.8 2 3.05 1.81 2.31 2.06 2.31 1.86 1.88 3.12 2.36 2.93 2.06 3.75 2.56 12.53 6.87 12.67-7 2.36-1.55 2.13-1.44 2.12-1.5 1.31-.87 1.74-1.49 1.44-1.56 1.31-1.43 1.38-1.57 1.37-1.81 1.25-1.75 1.49-2.36.75-1.45.88-1.8.73-1.81.95-3.24.56-4.12z" class="st2"/><path d="M25.81 25.35h21.97v18.09h23.44v14.47l-.55 3.19-.5 1.68-.81 1.62H47.78v22.83l-11.24 6.12-10.73-5.87V64.4H3.98l-1.12-3.12-.62-2.18V43.44h23.57z" class="st4"/><path d="M2.24 24.86h68.99v.98H2.24z"/><path d="m36.79 94.09-12.17-6.66c-.4-.25-8.84-5.7-10.63-7.47l-.25-.25C3.69 69.75 1.58 61.07 1.58 55.54V1.87h70.43v53.67c0 5.55-2.12 14.24-12.19 24.19l-.23.23c-1.77 1.77-10.22 7.22-10.58 7.45l-12.22 6.68zM2.89 3.18v52.36c0 5.28 2.04 13.6 11.78 23.24l.26.25c1.68 1.67 10.28 7.22 10.37 7.27l11.5 6.29 11.54-6.32c.05-.03 8.65-5.58 10.33-7.25l.24-.24c9.75-9.63 11.8-17.96 11.8-23.26V3.18H2.89z"/><path d="m30.4 62.53 1.29-.6s.28-.07.32.09c.04.15.17.51.2.95.03.45.3 1 .78 1.26 1.22.66 3.23.47 3.52.39.3.11 2.33.28 3.58-.32.49-.23.8-.78.85-1.22.05-.44.19-.8.24-.94.05-.15.33-.07.33-.07l1.26.67-.14-1.34s.01-.28.18-.28c.16 0 .54-.01.96.11.43.1 1.04.02 1.44-.36.99-.96 1.44-2.92 1.45-3.24.19-.24.98-2.13.81-3.51-.07-.53-.49-1-.89-1.17-.41-.19-.71-.43-.82-.53-.12-.1.04-.34.04-.34l1.03-.98-1.41-.27s-.28-.11-.23-.25c.06-.14.17-.51.41-.88.24-.37.35-.98.11-1.47-.61-1.24-2.37-2.27-2.67-2.37-.18-.26-1.75-1.59-3.14-1.84-.54-.1-1.12.16-1.42.49-.31.33-.63.53-.77.62-.13.08-.31-.14-.31-.14l-.63-1.29-.69 1.25s-.19.22-.31.13-.44-.31-.71-.66c-.28-.34-.84-.63-1.38-.56-1.36.19-2.88 1.52-3.07 1.77-.3.09-2.05 1.15-2.71 2.36-.26.48-.19 1.1.03 1.48.22.39.31.76.35.91.04.14-.23.25-.23.25l-1.4.19.98 1.04s.14.25.01.33c-.13.09-.43.32-.84.49-.41.16-.86.6-.96 1.13-.24 1.36.55 3.21.73 3.47-.02.31.46 2.29 1.41 3.31.38.4.99.52 1.42.42.43-.08.82-.05.96-.05.16.01.18.29.18.29l-.14 1.28z"/><path d="M36.78 57.89s-.48-.02-.6.42c-.13.44.19.84-.12 1.07-.32.23-.2.43-.64.3-.45-.14-.6-.35-.73-.69-.15-.34-.43-.58-.83-.83-.36-.3-.68-.49-1.04-.53-.37-.03-.6-.12-.87-.5-.25-.39-.18-.1 0-.63.18-.51.67-.24 1.06-.5.38-.27.26-.78.26-.78s-.31-.56-.77-.54c-.46.02-.73.45-1.06.21-.32-.23-.47-.06-.49-.52-.02-.46.15-.67.43-.91.27-.23.42-.58.53-1.04.17-.44.26-.79.18-1.15-.08-.36-.06-.61.22-.98.29-.37.04-.22.59-.21.54.02.44.58.81.85.37.28.81.01.81.01s.47-.37.31-.81c-.15-.44-.65-.56-.53-.94.13-.37-.09-.47.34-.62.45-.15.69-.06 1.01.11.31.2.68.22 1.16.2.46.03.84 0 1.15-.2.31-.18.56-.24 1-.09.43.16.22-.03.37.5s-.41.6-.56 1.03c-.15.44.25.79.25.79s.51.37.87.09c.37-.29.33-.8.73-.8.39 0 .42-.23.7.14.28.36.27.62.19.98-.08.35 0 .71.18 1.15.11.46.25.8.53 1.04.27.24.41.46.4.92-.02.46.09.2-.37.51-.44.31-.68-.21-1.15-.22-.46-.01-.72.48-.72.48s-.13.58.26.84c.38.27.86.07.98.45s.35.32.08.7c-.26.38-.52.46-.88.49-.36.03-.69.22-1.04.53-.39.25-.68.49-.82.83-.14.33-.31.53-.75.66s-.16.15-.6-.18c-.44-.33-.03-.72-.15-1.17-.15-.42-.68-.46-.68-.46" class="st2"/><path d="m36.9 29.38-.93-.16.16.88-.95-.1v1.34l.94-.25.31.45.19.18v.44s-.4.03-.5.21c-.1.19 0 0 0 0s-4.19-.37-7.55 2.12l-.22.65s2.22-1.59 7.4-1.81l.03.38s-4.8.06-7.67 2.02l-.09.72s2.68-1.65 7.71-1.74l.25.03.25.19.08.25-.43.19-.59.08-.44-.12.03.87.16.94.09.5v.53l.44-.37.49-.09.22.06s0 .22.03.53c.04.31-.12.84-.12.84l-.53.38s-.75.22-1.06.06c-.32-.15-.77-.59-.77-1.31 0-.71.18-.28.18-.28l.31.1h.23l-.03-.44-.2-.72-.36-.32-.32.32s-.15-1.47-1.4-1.4c0 0-.41 1.25.19 2.28l-.56.03-.15.53.43.78.34.22.25-.54.03-.31s.13-.07.25.09c.13.15.47 1.44.03 1.75-.44.31-.71.4-1.1.25-.37-.15-1.96-.62-1.7-1.65l.12-.28.4.09.23.08.03-.34s-.44-1.65-1.4-1.07l-.1-.85-.16-.4-.84.37-.26.26 3.25 6.61s1.97-1.15 5.36-1.15c3.4 0 5.37 1.15 5.37 1.15l3.24-6.61-.25-.26-.84-.37-.15.4-.09.85c-.98-.59-1.41 1.07-1.41 1.07l.02.34.25-.09.41-.09.13.28c.25 1.03-1.35 1.5-1.72 1.65-.38.15-.66.06-1.1-.25-.43-.31-.09-1.59.03-1.75.13-.16.25-.09.25-.09l.03.31.25.54.34-.22.43-.78-.16-.53-.56-.03c.59-1.02.19-2.28.19-2.28-1.24-.07-1.4 1.4-1.4 1.4l-.31-.32-.38.32-.19.72-.03.44h.22l.31-.1s.19-.43.19.28c0 .72-.46 1.16-.78 1.31-.31.16-1.06-.06-1.06-.06l-.52-.38s-.16-.53-.14-.84c.04-.31.04-.53.04-.53l.21-.06.5.09.44.37v-.53l.09-.5.16-.94.03-.87-.44.12-.59-.08-.44-.19.1-.25.25-.19.25-.03c5.02.09 7.7 1.74 7.7 1.74l-.09-.72c-2.88-1.96-7.67-2.02-7.67-2.02l.03-.38c5.18.22 7.4 1.81 7.4 1.81l-.22-.65c-3.37-2.5-7.55-2.12-7.55-2.12s.1.19 0 0c-.09-.18-.49-.21-.49-.21v-.44l.19-.18.31-.45.94.25V30l-.94.1.16-.88-.92.16zM46.87 60.03l2.73 3.15-3.62-1.77zM47.13 48.7l9.04-2.89-8.33 4.65zM48.39 53.22l9.46.87-9.48 1.02zM47.96 57.55l8.21 4.79-8.92-2.96zM48.1 51.23l3.11-.24-2.87 1.47zM48.34 55.76l2.97 1.44-3.22-.17zM26.25 59.65l-9.04 2.88 8.33-4.64zM25 55.13l-9.47-.86 9.49-1.03zM25.42 50.8l-8.21-4.78 8.92 2.95zM25.29 57.11l-3.11.25 2.86-1.46zM25.04 52.59l-2.95-1.43 3.21.16zM41.8 64.64l2.9 9.04-4.65-8.32zM37.29 65.91l-.87 9.46-1.02-9.48zM32.95 65.48l-4.78 8.2 2.96-8.91zM39.27 65.61l.25 3.12-1.47-2.87zM34.75 65.86l-1.44 2.95.17-3.22zM28.82 62.98l-3.21 1.86 2.18-2.93zM27.24 61.32l-3.72 1.36 3.05-2.46zM30.54 64.4l-2.98 2.62 1.79-3.62zM45.55 61.92l1.86 3.22-2.93-2.18zM43.9 63.51l1.36 3.73-2.48-3.05zM44.51 45.21l3.22-1.85-2.18 2.93zM46.09 46.88l3.73-1.37-3.05 2.47zM42.81 43.79l2.96-2.61-1.78 3.62zM27.68 46.38l-1.86-3.22 2.94 2.18zM29.34 44.8l-1.37-3.73 2.47 3.06zM26.42 48.31l-2.79-3.19 3.62 1.78zM36.78 51.12l-.91 1.8-1.72.22 1.28 1.24-.4 1.98 1.75-1.13 1.74 1.13-.4-1.98 1.28-1.24-1.73-.22z" class="st5"/><path d="M26.31 87.48h-.98V64.89H4.24v-.98h22.07v23.57zm21.96-.25h-.98V63.91h22.07v.98H48.27v22.34zm22.95-43.3H47.29V25.35h.98v17.59h22.95v.99zm-44.91 0H2.24v-.98h23.08v-17.6h.98v18.58z"/><path d="M18.88 4.39 17.6 5.71l-.09 12.17s1.03 1.23 4.51 1.5c3.49.27 9.71-.82 9.71-.82l3.1.27.87.36-.09.78.11 1 .57.73 1.57-.05.55-.68-.02-1.14-.04-.55 1.32-.5 1.05-.14 3.19.05 3.05.59 3.92.18s2.41-.11 3.46-.41c1.05-.3 1.78-.73 1.78-.73l.41-.5-.05-11.8-1.37-1.64-.14 2.83.18 8.71-.05 1.09-1.46.59-6.29.05-4.7-.32-2.51.27-1.82.73-1.37.96-2.37-1.69-3.55-.44-7.34.63-3.01-.09-1.91-.77.11-12.54z" class="st5"/><path d="M36.93 19.72c-.09 0-.17-.03-.24-.08-.68-.52-.31-.77-1.83-1.53-.97-.49-2.55-.64-3.72-.64-1 0-2.13.08-3.37.23-1.64.2-3.12.3-4.4.3-3.27 0-4.25-.65-4.35-.72l-.29-.14a.39.39 0 0 1-.22-.35l.06-12.4c0-.15.09-.29.23-.35s.3-.04.41.06c.45.38.72.63.79.73.18.14 1.62.9 4 .9 1.1 0 2.27-.16 3.48-.48.89-.23 1.82-.35 2.75-.35 3.91 0 6.79 2.01 6.91 2.1.1.07.16.19.16.32v12.02c0 .15-.08.28-.22.35-.04.02-.1.03-.15.03"/><path d="M37.13 19.72c-.06 0-.12-.01-.17-.04a.402.402 0 0 1-.22-.35V7.31c0-.13.06-.24.17-.32.12-.09 3-2.1 6.91-2.1.94 0 1.86.12 2.76.35 1.21.32 2.38.48 3.48.48 2.38 0 3.82-.77 4.05-.96.02-.05.29-.3.75-.68.12-.1.28-.12.41-.06.14.06.22.2.23.35l.06 12.4c0 .15-.08.28-.21.35l-.35.18c-.05.04-1.03.69-4.3.69-1.28 0-2.76-.1-4.4-.3-1.24-.15-2.38-.23-3.37-.23-1.18 0-3.16.31-3.86.69-1.35.76-.98.93-1.69 1.47-.08.07-.16.1-.25.1M10.24 19c-.34 0-.55-.27-.61-.55-.05-.19-.27-.78-.63-.99-.51-.29-.59-.81-.56-1.13-.01-.05-.01-.11-.01-.15.03-.24.21-.48.56-.73.34-.25.61-.86.67-1.05a.7.7 0 0 1 1.15-.26c.1.09.18.18.26.26.2.21.27.29.54.29H15.5c.11 0 .2.04.28.12.07.07.11.17.11.27l-.02 2.75c0 .21-.15.41-.39.38 0 0-3.45-.02-3.87 0-.24.01-.36.12-.72.45l-.09.09c-.19.17-.37.25-.56.25M10.25 12.93c-.34 0-.56-.27-.61-.55-.06-.19-.28-.78-.64-.99-.51-.29-.59-.82-.56-1.12-.01-.06-.01-.11-.01-.15.03-.24.21-.48.56-.73.34-.25.61-.86.67-1.06.13-.38.68-.67 1.15-.26.1.09.18.18.26.26.2.22.27.29.54.29H15.5c.1 0 .2.04.27.11s.11.17.11.27l-.02 2.75c0 .21-.18.38-.39.38 0 0-3.46-.02-3.88 0-.24.01-.36.12-.73.47l-.08.07c-.17.18-.35.26-.53.26M63.82 19c-.19 0-.37-.08-.56-.26l-.1-.09c-.35-.33-.48-.43-.71-.44-.44-.03-3.88 0-3.88 0-.21 0-.38-.17-.39-.38l-.02-2.75a.396.396 0 0 1 .38-.39H62.43c.26 0 .33-.07.54-.29.08-.08.16-.17.26-.26a.702.702 0 0 1 1.15.25c.07.21.33.81.68 1.06.34.24.52.48.56.73 0 .04 0 .09-.01.15.04.32-.04.83-.56 1.13-.36.21-.59.81-.64 1.01-.04.26-.25.53-.59.53M63.81 12.93c-.19 0-.37-.08-.55-.25l-.08-.08c-.36-.34-.49-.45-.73-.47-.41-.02-3.87 0-3.87 0-.21 0-.38-.17-.39-.38L58.17 9c0-.1.04-.2.11-.27s.17-.11.28-.11H62.45c.27 0 .34-.07.54-.29.07-.08.16-.17.26-.25a.71.71 0 0 1 1.16.25c.07.22.33.82.67 1.06.35.25.53.49.56.73.01.04 0 .09-.01.15.04.3-.04.83-.55 1.12-.36.21-.58.8-.64 1.01-.07.26-.28.53-.63.53"/><path d="M37.99 23.66c-.44 0-.77-.05-.77-.05h-.43s-.31.04-.72.04c-2.11 0-2.5-.97-2.55-1.54-.02-.24.03-.46.1-.65l-18.1.32c-.12.02-.21-.04-.28-.11a.363.363 0 0 1-.12-.28l.08-14.06c.02-.16.12-.29.27-.34 0 0 .22-.1.59-.54.55-.65.98-.92 1.01-.93a.385.385 0 0 1 .51.39l-.02.35-.04 11.52c.25.26 1.43 1.53 5.26 1.53 1.44 0 3.51-.14 5.36-.42 1.61-.25 3.03-.38 4.22-.38 2.97 0 3.5.47 3.63.65.09.12.11.29.05.43l-.13.32c-.06.1-.28.47.02 1.13.18.39.59.49.88.52h.37c.35-.03.73-.14.91-.52.31-.66.08-1.03.07-1.04l-.18-.41c-.06-.14-.04-.3.05-.43.13-.19.63-.68 3.6-.68 1.19 0 2.61.13 4.22.38 1.85.27 3.52.41 4.96.41 3.81 0 5.32-1.23 5.58-1.5l-.03-11.84a.385.385 0 0 1 .51-.39c.03.01.57.28 1.12.93.38.45.6.54.6.54.13.06.24.19.25.33l.03.34.06 13.72c0 .1-.04.2-.11.28-.08.07-.19.14-.28.11l-18.1-.32c.07.19.12.4.1.65-.05.58-.44 1.54-2.55 1.54"/><path d="M35.24 17.68c.13.04.4.21 1.6.88V7.52c-.96-.41-3.46-1.85-6.6-1.85-.87 0-1.73.11-2.56.33-1.27.33-2.51.5-3.68.5-2.78 0-4.68-.98-4.85-1.23 0-.01-.01-.02-.02-.03l-.06 11.56.13.06c.06.03 1.17.61 4.16.61 1.25 0 2.7-.1 4.31-.29 3.58-.44 6.21-.26 7.57.5" class="st2"/><path d="M8.93 16.27c0 .05 0 .1-.01.14-.01.04-.04.29.18.42.62.35.94 1.1 1.05 1.46l.03-.03c.42-.39.74-.7 1.33-.72.36-.02 2.61-.01 3.63 0l.02-1v-1.16H11.56c-.65 0-.94-.31-1.2-.58-.05-.06-.11-.12-.18-.18-.12.31-.46 1.05-1.01 1.44a.91.91 0 0 0-.24.21M8.93 10.2c0 .05 0 .1-.01.14-.01.04-.04.28.18.41.62.36.94 1.11 1.05 1.46l.01-.01c.42-.4.76-.71 1.35-.75.38-.01 2.71 0 3.72 0l.01-.99V9.3H11.55c-.65 0-.95-.31-1.21-.58-.06-.06-.11-.12-.18-.18-.12.31-.45 1.05-1 1.45-.13.1-.2.17-.23.21" class="st5"/><path d="M34.2 10.13c-1.64-.74-3.68-1.67-6.78-.86-1.93.5-4.49.83-5.91.21l.31-.71c1.02.44 3.14.34 5.4-.25 3.36-.89 5.63.15 7.29.9l-.31.71zM34.2 13.37c-1.64-.74-3.68-1.67-6.78-.86-1.93.51-4.49.83-5.91.22l.31-.71c1.02.44 3.14.34 5.4-.25 3.36-.89 5.63.15 7.29.9l-.31.7zM34.2 16.1c-1.64-.75-3.68-1.67-6.78-.86-1.93.51-4.49.83-5.91.22l.31-.71c1.02.44 3.14.34 5.4-.25 3.36-.88 5.63.15 7.29.9l-.31.7z" class="st6"/><path d="M37.25 7.52v11.04c1.16-.67 1.43-.83 1.57-.88 1.42-.77 4.02-.93 7.56-.5 1.61.2 3.06.29 4.31.29 3 0 4.07-.75 4.08-.76l.18-.09-.06-11.55-.03.03c-.17.24-2.02 1.4-4.8 1.4-1.17 0-2.41-.17-3.68-.5-.83-.22-1.69-.32-2.56-.33-3.48-.01-6.57 1.85-6.57 1.85" class="st2"/><path d="M61.21 17.52c.64 0 1.18 0 1.34.01.58.02.91.33 1.33.72l.03.03c.12-.37.44-1.11 1.06-1.46.24-.14.18-.41.18-.41-.01-.05-.01-.1-.01-.14-.03-.04-.1-.11-.24-.21-.55-.4-.89-1.14-1.01-1.45-.07.07-.12.13-.18.19-.26.27-.55.58-1.2.58H58.91l.02 2.16c.58-.01 1.4-.02 2.28-.02M61.21 11.45c.64 0 1.18 0 1.33.01.6.03.93.35 1.35.75l.01.01c.12-.37.44-1.11 1.05-1.46.22-.12.19-.37.18-.41a.33.33 0 0 1 0-.14c-.03-.04-.1-.11-.25-.22-.55-.39-.88-1.14-1-1.45-.07.07-.12.13-.18.19-.25.26-.54.57-1.2.57h-3.67l.02 2.16c.59-.01 1.48-.01 2.36-.01" class="st5"/><path d="M37.27 22.85c.06 0 .34.04.72.04.64 0 1.72-.11 1.77-.83.03-.4-.32-.68-.32-.68a.41.41 0 0 1-.13-.44c.06-.15.2-.26.37-.26h.01l18.64.33-.07-13.39c-.16-.11-.57-.3-.86-.65-.16-.18-.38-.33-.56-.44l.04 11.39c0 .07-.02.14-.05.2-.1.17-1.11 1.68-5.97 1.68-1.48 0-3.19-.14-5.08-.42-1.58-.25-2.96-.37-4.11-.37-1.86 0-2.67.33-2.98.51v.01c.13.17.33.8-.04 1.58-.27.57-.85.9-1.59.9-.81 0-1.39-.33-1.66-.9-.34-.72-.2-1.31-.04-1.59-.3-.18-1.11-.51-2.98-.51-1.15 0-2.53.12-4.11.37-1.89.28-3.59.42-5.08.42-4.86 0-6.02-1.51-6.12-1.68a.351.351 0 0 1-.05-.2l.04-11.39c-.18.11-.25.26-.41.44-.29.34-.74.54-.91.64l-.01.13L15.68 21l18.68-.33h.01c.16 0 .31.11.36.26.06.16.01.33-.12.44 0 0-.35.29-.32.68.06.72 1.13.83 1.77.83.37 0 .65-.04.67-.04l.54.01z" class="st2"/><path d="m39.86 10.13-.32-.71c1.66-.75 3.93-1.79 7.29-.9 2.26.59 4.38.69 5.4.25l.31.71c-1.41.61-3.98.29-5.91-.21-3.08-.81-5.13.12-6.77.86M39.86 13.37l-.32-.71c1.66-.75 3.93-1.78 7.29-.9 2.26.59 4.38.69 5.4.25l.31.71c-1.41.61-3.98.29-5.91-.22-3.08-.8-5.13.13-6.77.87M39.86 16.1l-.32-.71c1.66-.75 3.93-1.79 7.29-.9 2.26.6 4.38.69 5.4.25l.31.71c-1.41.61-3.98.29-5.91-.22-3.08-.81-5.13.12-6.77.87" class="st6"/><path d="m17.176 5.872 1.502-1.662.408.369-1.502 1.662zM54.915 4.57l.408-.37 1.501 1.663-.408.368z"/><path d="M32.34 48.15s.79.31 1 .25c.22-.06.32-.41.32-.41l.03-.38s.16-.24.31-.33c.16-.1.44-.2.62-.22.19-.03.25 0 .41-.12.15-.13.5-1.12-.19-1.63-.69-.5-1.22-.81-1.71-.5-.51.32-1.03.97-1.16 1.1-.12.13-.4.9-.56.9-.03.16-1.04.34-1.19.43-.15.1-.91.46-1.32.88-.42.42-.23 1 .11 1.79.32.78 1.38.67 1.53.55.15-.13.14-.19.21-.37.07-.18.22-.43.35-.56.13-.14.41-.23.41-.23l.37.05s.35-.01.46-.21c.11-.21 0-.99 0-.99M41.12 48.28s-.05.83.07 1.02c.13.19.49.17.49.17l.38-.08s.28.07.42.19c.14.12.32.35.41.52.09.17.08.24.25.35.17.1 1.24.13 1.5-.68.27-.8.41-1.4-.05-1.78-.46-.38-1.26-.68-1.42-.77-.16-.07-1-.1-1.06-.25-.16.03-.64-.88-.78-.99-.14-.12-.73-.72-1.27-.99-.53-.27-1.04.09-1.69.64-.65.56-.22 1.51-.06 1.62.18.11.23.08.42.1.19.01.49.08.65.16.17.08.35.31.35.31l.06.37s.12.33.35.37c.26.06.98-.28.98-.28M29.53 56.4s.54-.65.55-.88c.01-.22-.29-.41-.29-.41l-.35-.15s-.18-.23-.23-.4c-.04-.18-.04-.48-.01-.66.03-.19.08-.24.01-.43-.07-.18-.92-.82-1.6-.32-.68.49-1.14.9-1.01 1.47.14.58.61 1.28.68 1.43.08.15.74.67.69.81.13.08 0 1.1.03 1.27.04.17.17 1.01.43 1.53.27.52.88.53 1.73.46.85-.08 1.06-1.12.99-1.3-.07-.18-.14-.19-.28-.31-.15-.13-.34-.35-.42-.51-.09-.16-.09-.46-.09-.46l.16-.34s.1-.34-.05-.51c-.16-.16-.94-.29-.94-.29M36.61 61.53s-.45-.71-.66-.78c-.22-.08-.49.14-.49.14l-.25.28s-.27.11-.45.09c-.18-.01-.46-.09-.63-.19-.17-.09-.2-.14-.4-.14-.2.01-1.06.62-.79 1.42.25.81.5 1.37 1.09 1.41.59.04 1.4-.17 1.58-.2.18-.03.86-.5.98-.4.12-.11 1.05.34 1.22.35.17.02 1.01.16 1.59.07.58-.09.77-.68.96-1.5.19-.83-.72-1.35-.92-1.35-.2 0-.23.07-.4.16-.16.1-.43.22-.61.25-.18.04-.46-.05-.46-.05l-.27-.27s-.3-.2-.5-.1c-.22.11-.59.81-.59.81M43.77 56.6s-.82.2-.95.38c-.14.18-.01.51-.01.51l.19.33s.02.3-.05.47c-.07.16-.25.4-.38.54-.14.14-.21.15-.25.35-.06.19.26 1.2 1.1 1.2.84 0 1.46-.05 1.68-.6.22-.54.26-1.39.29-1.56.02-.17-.2-.97-.08-1.06-.06-.15.64-.88.71-1.04.06-.17.46-.91.56-1.49.08-.58-.4-.95-1.13-1.39-.73-.43-1.51.27-1.56.46-.06.19 0 .24.05.42.04.19.06.48.04.66-.02.18-.19.42-.19.42l-.33.17s-.28.24-.25.46c.02.19.56.77.56.77M31.99 42.47c-.11-.28.17-.67.64-.85.47-.19.94-.11 1.06.16.11.29-.18.66-.64.85-.48.19-.95.12-1.06-.16M35.99 40.68c0-.3.41-.54.92-.54.5 0 .92.24.92.54 0 .3-.42.55-.92.55-.51-.01-.92-.25-.92-.55M39.26 41.58c.14-.26.62-.31 1.07-.08.46.22.72.62.59.9-.13.27-.61.31-1.06.08-.46-.23-.73-.63-.6-.9" class="st4"/><path d="M132.36 3.18v15.68L120.74 3.18h-5.07V27.4h5V11.2l12.02 16.2h4.67V3.18h-5zM200.35 39.96v15.68l-11.62-15.68h-5.08v24.22h5v-16.2l12.02 16.2h4.67V39.96h-4.99zM141.58 3.18h5.04V27.4h-5.04zM167.59 3.21l-6.78 17.36-6.61-17.36h-5.51l9.92 24.37h3.75l10.37-24.37h-5.14zM231.21 3.18h5.03V27.4h-5.03zM217.83 9.17c0-1.4 1.4-2.21 3.2-2.21 1.99 0 3.75.66 5.81 1.76V4.38c-1.39-.8-3.5-1.47-6.06-1.47-5.33 0-8.23 3.23-8.23 6.91 0 1.87.63 3.24 1.54 4.3 2.94 3.34 8.82 3.89 8.82 7.09 0 1.84-1.72 2.41-3.49 2.41-2.12 0-5.15-1.1-6.83-2.16v4.71c1.73.96 4.12 1.58 7.06 1.58 4.97 0 8.59-2.76 8.59-7.17 0-7.59-10.41-7.22-10.41-11.41zM256.41 7.29h-6.01V27.4h-5.08V7.29h-6.58V3.18h18.82zM102.08 43.82c-4.19 0-7.25 3.05-7.25 8.34s3.05 8.34 7.25 8.34c4.12 0 7.17-3.05 7.17-8.34 0-5.22-2.97-8.34-7.17-8.34m0 20.73c-7.78 0-12.49-5.12-12.49-12.21 0-7.28 5.17-12.64 12.49-12.64 7.86 0 12.5 5.34 12.5 12.35 0 7.03-5.08 12.5-12.5 12.5zM245.78 43.82c-4.19 0-7.25 3.05-7.25 8.34s3.05 8.34 7.25 8.34c4.12 0 7.17-3.05 7.17-8.34 0-5.22-2.97-8.34-7.17-8.34m0 20.73c-7.78 0-12.49-5.12-12.49-12.21 0-7.28 5.17-12.64 12.49-12.64 7.86 0 12.5 5.34 12.5 12.35 0 7.03-5.08 12.5-12.5 12.5zM168.05 43.82c-4.19 0-7.25 3.05-7.25 8.34s3.05 8.34 7.25 8.34c4.12 0 7.17-3.05 7.17-8.34 0-5.22-2.97-8.34-7.17-8.34m0 20.73c-7.78 0-12.49-5.12-12.49-12.21 0-7.28 5.17-12.64 12.49-12.64 7.86 0 12.5 5.34 12.5 12.35 0 7.03-5.08 12.5-12.5 12.5zM141.58 64.17V39.96h5v20.06h8.53v4.15zM278.08 39.96v15.68l-11.62-15.68h-5.08v24.22h5v-16.2l12.02 16.2h4.67V39.96h-4.99zM217.3 44.15h-2.69v15.88h2.76c5.99 0 8.35-3.79 8.35-8.01 0-4.79-2.87-7.87-8.42-7.87m-.12 20.02h-7.6V39.96h8.05c8.63 0 13.5 4.67 13.5 11.91-.01 7.45-5.57 12.3-13.95 12.3M205.35 27.4h5.57l-6.18-10.5c2.62-1.34 4-3.66 4-6.44 0-4.47-2.4-7.28-8.82-7.28h-7.48V27.4h5.04v-9.25h2.54l5.33 9.25zm-5.32-20.04c2.35 0 3.72 1.44 3.72 3.31 0 2.01-1.37 3.5-3.72 3.5h-2.56V7.36h2.56zM274.56 3.18l-5.03 10.32-5.11-10.32h-5.55l7.94 14.63v9.59h5.04v-9.52l7.96-14.7h-5.25zM106.48 3.18v14.66c0 4.1-2.22 5.68-5.44 5.68s-5.44-1.58-5.44-5.68V3.18h-4.99v15c0 7.11 4.42 9.56 10.43 9.56 6 0 10.43-2.45 10.43-9.56v-15h-4.99zM174.78 27.4V3.18h14.03l-1.32 4.11h-7.69v5.66h7.72v4.15h-7.72v6.18h8.97v4.12zM130.17 49.85h-7.62v-5.77h7.75l1.29-4.12h-14.08v24.22h5.04V53.96h7.62z" class="st2"/></g></svg>
